<?xml version="1.0" encoding="utf-8"?>
<!-- Generator: Adobe Illustrator 23.0.6, SVG Export Plug-In . SVG Version: 6.00 Build 0)  -->
<svg version="1.1" xmlns="http://www.w3.org/2000/svg" xmlns:xlink="http://www.w3.org/1999/xlink" x="0px" y="0px"
	 viewBox="0 0 171.69 34.63" style="enable-background:new 0 0 171.69 34.63;" xml:space="preserve">
<style type="text/css">
	.st0{opacity:0.5;fill:#E6E6E6;}
	.st1{opacity:0.5;fill:#E6E6E6;stroke:#D4145A;stroke-width:0.25;stroke-miterlimit:10;}
	.st2{fill:#F24040;}
	.st3{fill:#C89AD1;}
	.st4{fill:#9243A1;}
	.st5{fill:#653287;}
	.st6{fill:#009EA0;}
	.st7{fill:#2ACCD0;}
	.st8{fill:#83E2E1;}
	.st9{fill:#FFDE03;}
	.st10{fill:#FCC8AF;}
	.st11{fill:#F7B949;}
	.st12{fill:#ED7F3B;}
	.st13{fill:#DB0064;}
	.st14{fill:#94EBB3;}
	.st15{fill:#A6C1E5;}
	.st16{fill:#6295E6;}
	.st17{fill:#0336FF;}
	.st18{fill:#F2F2F2;}
	.st19{fill:#666666;}
	.st20{fill:#FCC8AE;}
	.st21{fill:#A0C4FF;}
	.st22{fill:#FFFFFF;}
	.st23{fill:#4D4D4D;}
	.st24{fill:#CCCCCC;}
	.st25{fill:#999999;}
	.st26{opacity:0.5;fill:#E6E6E6;stroke:#666666;stroke-width:0.25;stroke-miterlimit:10;}
	.st27{fill:none;stroke:#333132;stroke-width:0.05;stroke-miterlimit:10;}
	.st28{fill:none;stroke:#000000;stroke-width:0.05;stroke-miterlimit:10;}
	.st29{opacity:0.5;fill:none;stroke:#D4145A;stroke-width:0.072;stroke-miterlimit:10;}
	.st30{opacity:0.5;fill:none;stroke:#D4145A;stroke-width:0.25;stroke-miterlimit:10;}
	.st31{fill:#E6E6E6;stroke:#B3B3B3;stroke-width:0.75;stroke-miterlimit:10;}
</style>
<g id="Guides">
	<g>
		
			<rect x="-0.82" y="0.83" transform="matrix(1.447270e-10 -1 1 1.447270e-10 -0.8188 10.4174)" class="st2" width="11.24" height="9.57"/>
		
			<rect x="11.44" y="1.08" transform="matrix(1.189867e-10 -1 1 1.189867e-10 11.4387 22.6749)" class="st3" width="11.24" height="9.07"/>
		
			<rect x="23.64" y="0.64" transform="matrix(1.308048e-10 -1 1 1.308048e-10 23.6438 34.88)" class="st4" width="11.24" height="9.96"/>
		
			<rect x="35.14" y="1.81" transform="matrix(9.923624e-11 -1 1 9.923624e-11 35.1407 46.3769)" class="st5" width="11.24" height="7.61"/>
		
			<rect x="42.66" y="5.14" transform="matrix(1.456974e-11 -1 1 1.456974e-11 42.6633 53.8994)" class="st6" width="11.24" height="0.96"/>
		
			<rect x="50.14" y="1.4" transform="matrix(1.102452e-10 -1 1 1.102452e-10 50.1432 61.3794)" class="st7" width="11.24" height="8.43"/>
		
			<rect x="60.25" y="0.64" transform="matrix(1.308048e-10 -1 1 1.308048e-10 60.2539 71.4901)" class="st8" width="11.24" height="9.96"/>
		
			<rect x="71.92" y="1.63" transform="matrix(1.040928e-10 -1 1 1.040928e-10 71.9241 83.1603)" class="st9" width="11.24" height="7.97"/>
		
			<rect x="82.35" y="2.39" transform="matrix(8.547658e-11 -1 1 8.547658e-11 82.3533 93.5895)" class="st10" width="11.24" height="6.46"/>
		
			<rect x="92.05" y="2.02" transform="matrix(9.421803e-11 -1 1 9.421803e-11 92.0496 103.2858)" class="st11" width="11.24" height="7.19"/>
		
			<rect x="104.67" y="4.78" transform="matrix(2.234041e-11 -1 1 2.234041e-11 104.6727 115.9088)" class="st12" width="11.24" height="1.68"/>
		
			<rect x="114.32" y="-0.06" transform="matrix(1.496643e-10 -1 1 1.496643e-10 114.3233 125.5595)" class="st13" width="11.24" height="11.35"/>
		
			<rect x="127.27" y="1.45" transform="matrix(1.094361e-10 -1 1 1.094361e-10 127.2723 138.5085)" class="st14" width="11.24" height="8.34"/>
		
			<rect x="138.53" y="0.09" transform="matrix(1.442411e-10 -1 1 1.442411e-10 138.5277 149.7639)" class="st15" width="11.24" height="11.05"/>
		
			<rect x="150.73" y="0.51" transform="matrix(1.344472e-10 -1 1 1.344472e-10 150.7336 161.9698)" class="st16" width="11.24" height="10.21"/>
		
			<rect x="161.74" y="1.28" transform="matrix(1.129968e-10 -1 1 1.129968e-10 161.7361 172.9722)" class="st17" width="11.24" height="8.67"/>
		<g>
			<path d="M0,28.82c0-3.45,2.51-5.81,5.66-5.81c1.58,0,2.85,0.59,3.81,1.6c0.08,0.08,0.12,0.2,0.12,0.32c0,0.27-0.2,0.47-0.47,0.47
				c-0.13,0-0.27-0.05-0.35-0.15c-0.76-0.84-1.87-1.36-3.1-1.36c-2.61,0-4.65,2-4.65,4.93c0,2.9,2.04,4.93,4.65,4.93
				c1.23,0,2.36-0.52,3.12-1.38c0.08-0.1,0.2-0.15,0.34-0.15c0.27,0,0.49,0.22,0.49,0.47c0,0.13-0.05,0.25-0.13,0.32
				c-0.99,1.04-2.22,1.62-3.81,1.62C2.51,34.63,0,32.28,0,28.82z"/>
			<path d="M20.61,33.99v-4.9h-7.12v4.9c0,0.25-0.2,0.49-0.47,0.49c-0.27,0-0.49-0.24-0.49-0.49V23.64c0-0.27,0.22-0.49,0.49-0.49
				c0.27,0,0.47,0.22,0.47,0.49v4.58h7.12v-4.58c0-0.27,0.22-0.49,0.49-0.49c0.27,0,0.49,0.22,0.49,0.49v10.36
				c0,0.25-0.22,0.49-0.49,0.49C20.83,34.48,20.61,34.25,20.61,33.99z"/>
			<path d="M34.24,33.98c0,0.27-0.22,0.51-0.51,0.51c-0.22,0-0.4-0.13-0.47-0.32l-0.99-2.49h-6.01l-0.99,2.49
				c-0.07,0.18-0.27,0.32-0.47,0.32c-0.29,0-0.51-0.24-0.51-0.51c0-0.05,0.02-0.12,0.05-0.2l4.14-10.1c0.12-0.3,0.44-0.52,0.77-0.52
				c0.35,0,0.66,0.22,0.79,0.52l4.14,10.1C34.21,33.82,34.24,33.89,34.24,33.98z M31.92,30.79l-2.66-6.65l-2.64,6.65H31.92z"/>
			<path d="M44.48,33.71c0.05,0.07,0.08,0.17,0.08,0.3c0,0.24-0.19,0.47-0.45,0.47c-0.17,0-0.32-0.07-0.42-0.2l-3.13-4.5h-2.64v4.21
				c0,0.25-0.2,0.49-0.47,0.49s-0.49-0.24-0.49-0.49V23.72c0-0.34,0.19-0.52,0.52-0.52h3.67c1.94,0,3.42,1.23,3.42,3.28
				c0,1.97-1.35,3.1-2.95,3.22L44.48,33.71z M37.91,28.91h3.15c1.48,0,2.49-1.01,2.49-2.42s-1.01-2.41-2.49-2.41h-3.15V28.91z"/>
			<path d="M47.8,33.99V23.64c0-0.27,0.22-0.49,0.49-0.49c0.27,0,0.47,0.22,0.47,0.49v10.36c0,0.25-0.2,0.49-0.47,0.49
				C48.02,34.48,47.8,34.25,47.8,33.99z"/>
			<path d="M55.26,33.99v-9.92h-3.28c-0.24,0-0.44-0.2-0.44-0.44c0-0.24,0.2-0.44,0.44-0.44h7.56c0.24,0,0.44,0.2,0.44,0.44
				c0,0.24-0.2,0.44-0.44,0.44h-3.3v9.92c0,0.25-0.22,0.49-0.49,0.49S55.26,34.25,55.26,33.99z"/>
			<path d="M70.84,33.98c0,0.27-0.22,0.51-0.51,0.51c-0.22,0-0.4-0.13-0.47-0.32l-0.99-2.49h-6.01l-0.99,2.49
				c-0.07,0.18-0.27,0.32-0.47,0.32c-0.29,0-0.51-0.24-0.51-0.51c0-0.05,0.02-0.12,0.05-0.2l4.14-10.1c0.12-0.3,0.44-0.52,0.77-0.52
				c0.35,0,0.66,0.22,0.79,0.52l4.14,10.1C70.81,33.82,70.84,33.89,70.84,33.98z M68.52,30.79l-2.66-6.65l-2.64,6.65H68.52z"/>
			<path d="M73.56,33.91V23.72c0-0.34,0.19-0.52,0.52-0.52h4.09c1.89,0,3.1,1.09,3.1,2.86c0,1.41-0.96,2.37-1.97,2.58
				c1.2,0.18,2.19,1.43,2.19,2.76c0,1.87-1.21,3.03-3.22,3.03h-4.19C73.74,34.43,73.56,34.23,73.56,33.91z M78.05,28.23
				c1.45,0,2.21-0.91,2.21-2.07c0-1.14-0.76-2.09-2.21-2.09h-3.54v4.16H78.05z M78.12,33.56c1.48,0,2.36-0.86,2.36-2.22
				c0-1.15-0.79-2.22-2.36-2.22h-3.6v4.45H78.12z"/>
			<path d="M84.74,33.91V23.64c0-0.27,0.22-0.49,0.49-0.49c0.27,0,0.47,0.22,0.47,0.49v9.92h5.05c0.24,0,0.44,0.2,0.44,0.44
				c0,0.24-0.2,0.44-0.44,0.44h-5.49C84.93,34.43,84.74,34.23,84.74,33.91z"/>
			<path d="M94.07,33.91V23.72c0-0.34,0.19-0.52,0.52-0.52h6.21c0.24,0,0.44,0.2,0.44,0.44c0,0.24-0.2,0.44-0.44,0.44h-5.78v4.16
				h5.66c0.24,0,0.44,0.2,0.44,0.44s-0.2,0.44-0.44,0.44h-5.66v4.45h5.78c0.24,0,0.44,0.2,0.44,0.44c0,0.24-0.2,0.44-0.44,0.44
				h-6.21C94.26,34.43,94.07,34.23,94.07,33.91z"/>
			<path d="M109.45,23.2h1.68v11.23h-1.68V23.2z"/>
			<path d="M123.93,25.51l-3.64,8.93h-0.71l-3.64-8.93v8.93h-1.68V23.2h2.41l3.27,8.07l3.27-8.07h2.41v11.23h-1.68V25.51z"/>
			<path d="M128.74,23.2h4.73c2.31,0,3.59,1.58,3.59,3.45c0,1.87-1.3,3.45-3.59,3.45h-3.05v4.33h-1.68V23.2z M133.25,24.68h-2.83
				v3.94h2.83c1.21,0,2.07-0.79,2.07-1.97C135.32,25.47,134.46,24.68,133.25,24.68z"/>
			<path d="M146.89,32.11h-5.51l-0.91,2.32h-1.85l4.46-11.23h2.1l4.46,11.23h-1.85L146.89,32.11z M141.87,30.61h4.53l-2.27-5.94
				L141.87,30.61z"/>
			<path d="M151.24,28.82c0-3.45,2.56-5.81,5.76-5.81c2.21,0,3.59,1.06,4.46,2.37l-1.43,0.76c-0.59-0.94-1.7-1.63-3.03-1.63
				c-2.27,0-4.02,1.79-4.02,4.31c0,2.51,1.75,4.31,4.02,4.31c1.33,0,2.44-0.69,3.03-1.63l1.43,0.76c-0.89,1.31-2.26,2.37-4.46,2.37
				C153.8,34.63,151.24,32.28,151.24,28.82z"/>
			<path d="M166.52,24.68h-3.49V23.2h8.64v1.48h-3.47v9.75h-1.68V24.68z"/>
		</g>
	</g>
</g>
<g id="Material">
</g>
</svg>
